<svg width="171" height="225" viewBox="0 0 171 225" fill="none" xmlns="http://www.w3.org/2000/svg">
<path d="M122.623 159.454C122.054 159.65 121.511 159.832 121 160C121.506 159.806 122.044 159.627 122.623 159.454C132.852 155.939 151.846 148.118 157.356 140.87C164.627 131.304 165.435 117.753 152.509 117.753C139.582 117.753 134.735 124.927 141.198 137.681C133.388 128.913 126.614 110.739 151.174 108.188C181.875 105 172.97 143.261 151.174 151.232C135.554 156.944 127.6 157.966 122.623 159.454Z" fill="#8C5845"/>
<path d="M0.520839 225C0.641765 224.122 0.815866 223.199 1.04723 222.24C2.96342 213.194 8.11207 196.802 17.3051 188.167C30.0932 176.157 44.4798 181.762 77.2491 176.157C103.465 171.673 114.814 136.388 117.212 119.306C67.3384 133.399 28.2283 121.975 14.9074 114.502C8.24694 111.833 -3.15574 104.733 4.51709 97.6868C11.1826 91.5656 40.4473 89.4326 59.7185 88.9781C60.6515 86.7704 61.9539 84.4695 63.6618 82.4733C68.4574 76.8683 86.8402 74.4662 89.2379 56.8505C91.1561 42.758 67 40 56.4686 35.2313C40.4835 26.2633 48.7424 8.00712 54.87 0C51.673 7.20641 46.8775 20.8185 62.0633 27.2242C74.212 32.3488 85.2417 42.1708 89.2379 46.4413C116.413 70.4626 82.0447 78.4698 69.2566 85.6762C67.3767 86.7356 65.8818 87.8112 64.7054 88.8762C66.6258 88.8427 68.508 88.8452 70.3343 88.8868C70.3344 88.8868 70.3345 88.8868 70.3346 88.8868C69.3958 88.8815 68.5016 88.879 67.6581 88.879C66.7195 88.879 65.7263 88.8839 64.6857 88.8941C59.4831 93.6183 60.543 98.1307 62.0633 100.089C45.279 100.089 26.3754 101.69 29.5724 103.292C32.7694 104.893 62.8626 109.698 105.223 103.292C147.583 96.8862 105.502 89.6875 70.3346 88.8868C70.3345 88.8868 70.3344 88.8868 70.3343 88.8868C68.508 88.8452 66.6258 88.8427 64.7054 88.8762C64.6988 88.8822 64.6922 88.8882 64.6857 88.8941C65.7263 88.8839 66.7195 88.879 67.6581 88.879C68.5016 88.879 69.3958 88.8815 70.3346 88.8868C87.7803 88.9847 120.677 90.0361 131.598 93.6833C145.985 98.4876 113.108 108.096 82.8439 109.698C52.5797 111.299 31.6917 107.295 28.4947 106.495C25.2977 105.694 18.9037 103.292 26.0969 100.089C31.8516 97.5267 49.8081 97.4199 58.0671 97.6868C57.5551 96.6611 58.0269 93.0071 59.6926 89.0396C32.9656 90.2972 2.01848 97.6585 10.9111 103.292C55.1485 127.313 116.679 109.431 137.992 100.089C138.632 162.865 98.829 184.164 78.8477 186.566C24.5665 180.524 4.89362 206.303 1.04723 222.24C0.830999 223.261 0.655912 224.188 0.520839 225Z" fill="#8C5845"/>
<path d="M9.31262 145.73C5.58278 136.922 -1.07767 116.424 2.11935 104.893C-0.544832 112.1 -2.83603 130.356 9.31262 145.73Z" fill="#8C5845"/>
</svg>
